<?xml version="1.0" encoding="UTF-8"?>
<svg width="12pt" style="margin-bottom:-2pt" version="1.1" viewBox="0 0 70.87 70.87" xml:space="preserve" xmlns="http://www.w3.org/2000/svg">
<style type="text/css">
	.st0{fill:#9AD4DF;}
</style>
	<path class="st0" d="m35.63 42.6c-10.79-9.84-21.43-19.55-32.12-29.29 1.29-1.77 3.06-2.03 4.84-2.03 18.01-0.03 36.01-0.02 54.02-0.01 1.91 0 3.72 0.37 5.25 2.18-10.63 9.68-21.25 19.37-31.99 29.15z"/>
	<path class="st0" d="m24.98 37.66c2.62 2.37 5.12 4.65 7.63 6.9 2.43 2.17 3.75 2.18 6.16 0.01 2.45-2.2 4.89-4.43 7.57-6.86 7.16 6.53 14.25 13 21.39 19.51-1.48 1.93-3.34 2.37-5.32 2.38-17.98 0.02-35.97 0.02-53.95-0.01-1.9 0-3.71-0.4-5.18-2.15 7.2-6.55 14.38-13.1 21.7-19.78z"/>
	<path class="st0" d="m1.2 15.96c7.32 6.66 14.12 12.86 21.2 19.31-7 6.39-13.9 12.67-21.2 19.32v-38.63z"/>
	<path class="st0" d="m69.66 54.16c-7.09-6.47-13.76-12.56-20.68-18.87 6.83-6.24 13.53-12.37 20.68-18.91v37.78z"/>
</svg>
