<?xml version="1.0" encoding="UTF-8"?>
<svg width="32px" enable-background="new 0 0 70.87 70.87" version="1.1" viewBox="0 0 70.87 70.87" xml:space="preserve" xmlns="http://www.w3.org/2000/svg">
<style type="text/css">
	.st0{fill:#9AD4DF;}
</style>
	<path class="st0" d="m68.7 8.02v54.87c-0.14 0.13-0.15 0.3-0.17 0.48-0.21 2.03-1.25 3.5-2.98 4.52-1.06 0.63-2.24 0.79-3.43 0.79-17.79 0.01-35.58 0.01-53.37 0-1.5 0-2.92-0.29-4.15-1.23-1.77-1.35-2.42-3.2-2.42-5.34v-52.14c0-0.8 0.02-1.6 0.09-2.4 0.23-2.57 2.18-4.64 4.7-5.2 0.33-0.07 0.7 0.06 1-0.2h54.87c0.15 0.16 0.35 0.15 0.54 0.17 2.47 0.21 4.77 2.34 5.13 4.75 0.05 0.32-0.06 0.66 0.19 0.93zm-29.99 22.7v-2.27c-0.01-1.19-0.7-1.88-1.9-1.88h-7.22c-1.35 0-2.02 0.68-2.02 2.04v30.82c0 1.38 0.7 2.08 2.07 2.09h7.02c1.38 0 2.05-0.69 2.05-2.08v-15.73c0-1.74 0.37-3.38 1.13-4.95 1.06-2.18 3.03-3.3 5.5-3.1 2.32 0.19 3.92 1.56 4.59 3.94 0.4 1.41 0.5 2.85 0.5 4.3v15.6c0 1.37 0.65 2.02 2.03 2.02h7.22c1.42 0 2.15-0.68 2.14-2.09-0.03-6.28 0.13-12.57-0.11-18.85-0.1-2.56-0.45-5.08-1.42-7.48-1.05-2.6-2.68-4.73-5.31-5.86-3.78-1.63-7.66-1.58-11.53-0.29-1.95 0.64-3.45 1.94-4.74 3.77zm-27.02 13.29v15.34c0 1.44 0.7 2.15 2.15 2.16h6.5c1.85 0 2.49-0.64 2.49-2.5v-29.96c0-0.19 0.01-0.39-0.01-0.58-0.07-1.19-0.82-1.9-2.02-1.9h-7.02c-1.42 0-2.1 0.69-2.1 2.11 0.01 5.11 0.01 10.22 0.01 15.33zm12.71-27.39c0-3.96-3.23-7.2-7.18-7.2-3.91 0-7.17 3.21-7.16 7.16 0.02 4.12 3.22 7.16 7.18 7.2 3.93 0.03 7.16-3.24 7.16-7.16z"/>
</svg>
