<?xml version="1.0" encoding="UTF-8"?>
<svg width="12pt" style="margin-bottom:-2pt" version="1.1" viewBox="0 0 70.87 70.87" xml:space="preserve" xmlns="http://www.w3.org/2000/svg">
<style type="text/css">
	.st0{fill:#9AD4DF;}
</style>
	<path class="st0" d="m1.94 36.98v-3.14c0.03-0.2 0.08-0.41 0.09-0.61 0.05-1.02 0.15-2.03 0.31-3.03 1.04-6.76 3.72-12.8 8.34-17.87 7.9-8.66 17.73-12.4 29.4-10.89 7.11 0.92 13.23 4.05 18.34 9.05 6.68 6.52 10.05 14.54 10.49 23.83 0.11 2.27-0.07 4.54-0.45 6.79-1.12 6.65-3.9 12.51-8.38 17.57-8.48 9.57-21.86 13.39-34.08 9.68-6.71-2.04-12.23-5.87-16.57-11.36-4.06-5.13-6.44-10.97-7.21-17.47-0.11-0.85-0.19-1.7-0.28-2.55zm16.68 0.04c-0.04 0.09-0.05 0.1-0.05 0.11 0.82 4.15 2.23 8.08 4.2 11.82 0.11 0.21 0.25 0.25 0.47 0.23 4.58-0.38 9.04-1.29 13.39-2.79 0.64-0.22 1.27-0.47 1.94-0.72-1.8-3.93-3.56-7.8-5.35-11.7-4.73 1.78-9.59 2.82-14.6 3.05zm17.54-4.28c1.79 3.92 3.56 7.79 5.32 11.64 0.11-0.02 0.16-0.03 0.2-0.04 4.11-1.93 7.89-4.38 11.28-7.41 0.21-0.19 0.19-0.36 0.12-0.59-0.76-2.71-1.75-5.33-2.97-7.87-0.6-1.24-1.23-2.45-1.98-3.66-3.58 3.27-7.56 5.88-11.97 7.93zm-11.36 19.49c0.03 0.1 0.04 0.15 0.06 0.18 2.31 3.42 5.09 6.37 8.44 8.79 0.14 0.1 0.29 0.13 0.46 0.1 3.53-0.48 6.94-1.37 10.25-2.68 0.13-0.05 0.3-0.06 0.36-0.25-1.48-3.25-2.97-6.5-4.48-9.8-4.87 1.91-9.89 3.11-15.09 3.66zm13.76-38.33c-1.24 1.23-2.53 2.35-3.9 3.36s-2.82 1.89-4.35 2.71c1.51 3.31 3.01 6.58 4.51 9.86 0.09-0.03 0.15-0.04 0.21-0.07 4.08-1.9 7.79-4.36 11.1-7.43 0.23-0.21 0.17-0.35 0.02-0.56-1.85-2.56-3.96-4.87-6.38-6.9-0.39-0.33-0.79-0.64-1.21-0.97zm18.29-0.49c-0.08 0.13-0.14 0.22-0.19 0.31-1.61 3.09-3.6 5.92-5.96 8.49-0.2 0.22-0.2 0.37-0.05 0.62 1.59 2.59 2.92 5.31 3.99 8.15 0.39 1.03 0.74 2.07 1.12 3.13 0.06-0.05 0.12-0.08 0.15-0.12 2.97-3.27 5.34-6.93 7.06-11 0.09-0.22 0.06-0.39-0.03-0.59-0.58-1.3-1.25-2.55-2-3.75-1.17-1.89-2.51-3.62-4.09-5.24zm-37.49 35.86c-0.94-1.94-1.76-3.93-2.44-5.97s-1.2-4.12-1.62-6.24c-3.45-0.12-6.81-0.6-10.15-1.52v0.47c0.06 4.01 0.88 7.86 2.38 11.57 0.15 0.38 0.38 0.55 0.76 0.63 3.42 0.72 6.88 1.1 10.37 1.12 0.22 0 0.45 0.05 0.7-0.06zm8.06-28.01c-1.57 0.59-3.11 1.05-4.69 1.37-1.59 0.32-3.2 0.46-4.8 0.53-0.44 2.07-0.35 8.76 0.14 10.7 4.75-0.19 9.35-1.11 13.83-2.8-1.51-3.3-2.99-6.53-4.48-9.8zm15.4 26.05c1.51 3.3 3 6.55 4.49 9.82 0.19-0.09 0.33-0.15 0.46-0.21 2.33-1.21 4.53-2.62 6.6-4.22 0.4-0.31 0.55-0.64 0.56-1.13 0.07-2.91-0.05-5.8-0.46-8.68-0.12-0.87-0.29-1.72-0.45-2.68-3.46 2.89-7.15 5.21-11.2 7.1zm15.33 1.92c0.12-0.1 0.18-0.14 0.23-0.2 3.07-3.21 5.47-6.86 7.14-10.98 0.05-0.14 0.09-0.29 0.1-0.43 0.23-2.76 0.05-5.5-0.47-8.21-0.14-0.77-0.28-1.54-0.57-2.34-0.1 0.17-0.16 0.27-0.21 0.37-1.94 3.68-4.39 6.98-7.31 9.93-0.26 0.27-0.33 0.5-0.24 0.86 0.59 2.54 0.98 5.1 1.15 7.7 0.07 1.08 0.12 2.15 0.18 3.3zm-3.74-38.13c-0.06-0.03-0.14-0.06-0.19-0.11-2.85-2.32-6.01-4.06-9.48-5.24-0.26-0.09-0.37-0.01-0.48 0.22-0.54 1.12-1.17 2.19-1.85 3.22-0.53 0.8-1.1 1.56-1.71 2.34 3.05 2.37 5.65 5.13 7.93 8.24 2.34-2.65 4.25-5.48 5.78-8.67zm-25.73 50.48c-0.12-0.12-0.2-0.19-0.27-0.26-2.74-2.47-5.06-5.29-7.01-8.42-0.19-0.3-0.37-0.42-0.74-0.41-2.84 0.08-5.68-0.03-8.5-0.42-0.82-0.11-1.64-0.23-2.5-0.35 0.06 0.12 0.08 0.19 0.12 0.25 1.78 2.89 3.96 5.43 6.56 7.62 0.18 0.15 0.38 0.24 0.59 0.3 2.95 0.95 5.97 1.49 9.05 1.68 0.87 0.06 1.75 0.01 2.7 0.01zm-20.21-40.37c-0.07 0.11-0.11 0.17-0.14 0.24-1.59 3.28-2.59 6.73-3 10.36-0.04 0.38 0.07 0.51 0.42 0.61 2.37 0.66 4.77 1.09 7.22 1.32 0.6 0.06 1.21 0.08 1.85 0.12-0.44-3.66-0.47-7.26-0.09-10.9-2.18-0.3-4.24-0.87-6.26-1.75zm20.52-4.15c2.56-1.34 4.83-2.99 6.9-5-3.44-2.11-7.08-3.51-11.11-4.22 1.43 3.13 2.81 6.16 4.21 9.22zm-7.06-7.8c-1.73 3.43-2.88 6.95-3.56 10.63 1.5 0.2 6.23-0.77 7.7-1.57-1.36-2.99-2.73-5.98-4.14-9.06zm6.1-4.03c1.77 0.52 3.51 1.11 5.19 1.84 1.68 0.74 3.29 1.61 4.87 2.6 1.24-1.51 2.29-3.08 3.18-4.84-4.49-0.86-8.88-0.75-13.24 0.4zm-9.98 4.71c-3.23 2.29-5.87 5.11-8.02 8.47 1.68 0.71 3.35 1.18 5.13 1.38 0.6-3.41 1.57-6.68 2.89-9.85zm19.66 53.9c1.28 0.66 2.5 1.11 3.7 1.58 0.69 0.27 1.34 0.32 2.03 0.05 0.51-0.2 1.06-0.32 1.58-0.5 0.67-0.23 1.35-0.46 2.02-0.8-0.44-0.96-0.86-1.88-1.3-2.84-2.6 1.09-5.21 1.89-8.03 2.51zm12.18-1.04c0.81-0.44 1.54-0.91 2.26-1.39 1.54-1.04 1.54-1.05 1.93-2.86 0-0.01 0.01-0.03 0.01-0.04 0.09-0.6 0.26-1.18 0.29-1.87-1.87 1.29-3.75 2.4-5.75 3.41 0.43 0.91 0.83 1.8 1.26 2.75zm-14.09 3.75c-0.06-0.19-0.19-0.21-0.29-0.26-0.86-0.46-1.7-0.94-2.51-1.48-0.24-0.16-0.48-0.2-0.76-0.18-2.12 0.21-4.24 0.23-6.36 0.1-0.15-0.01-0.31-0.07-0.52 0.05 3.4 1.24 6.85 1.84 10.44 1.77zm21.88-10.14c2.03-2.14 3.63-4.52 4.86-7.16-0.07 0.01-0.12 0.04-0.15 0.08-1.31 1.56-2.73 3.01-4.26 4.35-0.08 0.07-0.16 0.13-0.17 0.25-0.1 0.83-0.19 1.66-0.28 2.48z"/>
</svg>
