<?xml version="1.0" encoding="UTF-8"?>
<svg width="12pt" style="margin-botton:-2pt" version="1.1" viewBox="0 0 70.87 70.87" xml:space="preserve" xmlns="http://www.w3.org/2000/svg">
<style type="text/css">
	.st0{fill:#9AD4DF;}
</style>
	<path class="st0" d="m49.57 69.75c-4.62-0.03-8.93-1.36-13.06-3.31-6.44-3.04-12.01-7.31-17.08-12.27-3.7-3.63-7.26-7.39-10.23-11.66-3.09-4.44-5.67-9.14-7.11-14.39-1.05-3.83-1.41-7.71-0.4-11.61 1.22-4.69 4.15-8.05 8.21-10.52 0.41-0.25 0.88-0.27 1.34-0.29 1.56-0.08 3.1 0.08 4.64 0.33 1.12 0.18 1.81 0.81 2.16 1.89 1.24 3.83 2.51 7.65 3.77 11.48 0.32 0.98 0.67 1.95 0.92 2.96 0.27 1.1 0.08 2.08-0.62 2.98-0.67 0.87-1.42 1.66-2.14 2.47-0.64 0.72-1.27 1.44-1.88 2.19-0.83 1.04-0.89 2.09-0.25 3.24 1.45 2.6 3.11 5.07 4.87 7.47 3.41 4.65 7.89 8.06 12.74 11.05 0.75 0.46 1.53 0.89 2.3 1.33 1.07 0.61 2.07 0.5 3.04-0.25 1.07-0.83 2.05-1.76 3.06-2.65 0.57-0.5 1.15-0.99 1.74-1.46 0.85-0.69 1.83-0.85 2.88-0.58 2.1 0.53 4.12 1.31 6.17 1.97 2.67 0.85 5.32 1.78 8.01 2.61 1.34 0.41 2.08 1.21 2.24 2.62 0.19 1.66 0.41 3.3 0.19 4.97-0.03 0.26-0.11 0.5-0.25 0.73-2.71 4.42-6.45 7.41-11.63 8.41-1.19 0.21-2.41 0.3-3.63 0.29z"/>
	<path class="st0" d="m33.75 1.13c12.1 0.7 21.83 5.85 29 15.64 4.52 6.17 6.79 13.15 7 20.79 0.01 0.2 0.01 0.41 0 0.61-0.07 1.39-0.74 2.14-1.94 2.16-1.28 0.02-2.34-0.9-2.42-2.18-0.09-1.31-0.12-2.62-0.3-3.92-1.08-7.86-4.52-14.52-10.33-19.91-6.09-5.64-13.33-8.55-21.63-8.83-1.63-0.06-2.65-1.01-2.61-2.45 0.03-1.05 0.68-1.77 1.8-1.89 0.47-0.06 0.95-0.02 1.43-0.02z"/>
	<path class="st0" d="m60.61 37.03c0 0.37 0.01 0.74 0 1.11-0.04 1.01-0.55 1.76-1.37 2.01-0.94 0.29-1.99-0.06-2.56-0.87-0.32-0.45-0.46-0.96-0.49-1.51-0.38-8.59-4.25-15.16-11.49-19.73-3.51-2.21-7.41-3.27-11.56-3.38-1.74-0.04-2.75-1.33-2.38-3.02 0.17-0.8 0.72-1.17 1.46-1.31 0.98-0.2 1.96-0.05 2.93 0.04 11.55 1.07 21.37 9.3 24.45 20.48 0.56 2.03 0.9 4.08 1.01 6.18z"/>
	<path class="st0" d="m51.42 37.28c0 0.36 0.01 0.57 0 0.77-0.06 1.05-0.56 1.79-1.37 2.01-0.96 0.26-1.99-0.09-2.56-0.9-0.3-0.43-0.47-0.91-0.49-1.45-0.25-6.88-4.97-12.37-11.74-13.67-0.73-0.14-1.47-0.17-2.2-0.22-1.51-0.1-2.42-1.2-2.26-2.7 0.09-0.87 0.52-1.4 1.38-1.58 1.29-0.28 2.59-0.07 3.85 0.17 7.82 1.47 13.66 7.32 15.12 15.14 0.17 0.86 0.26 1.72 0.27 2.43z"/>
</svg>
